# MagicaVoxel @ Ephtracy

# material
mtllib ceiling.mtl
usemtl palette

# normals
vn -1 0 0
vn 1 0 0
vn 0 0 1
vn 0 0 -1
vn 0 -1 0
vn 0 1 0

# texcoords
vt 0.958984 0.5
vt 0.974609 0.5

# verts
v 12 0 20
v 12 0 12
v 12 2 20
v 12 2 12
v 19 1 20
v 19 1 19
v 19 1 13
v 19 1 12
v 19 2 20
v 19 2 19
v 19 2 13
v 19 2 12
v 20 0 20
v 20 0 12
v 20 1 20
v 20 1 12
v 12 0 20
v 12 2 20
v 19 1 20
v 19 2 20
v 20 0 20
v 20 1 20
v 12 0 12
v 12 2 12
v 19 1 12
v 19 2 12
v 20 0 12
v 20 1 12
v 12 0 20
v 20 0 20
v 13 0 19
v 19 0 19
v 14 0 18
v 15 0 18
v 16 0 18
v 18 0 18
v 14 0 17
v 15 0 17
v 16 0 17
v 14 0 16
v 15 0 16
v 17 0 16
v 18 0 16
v 16 0 15
v 17 0 15
v 18 0 15
v 14 0 14
v 16 0 14
v 17 0 14
v 18 0 14
v 13 0 13
v 19 0 13
v 12 0 12
v 20 0 12
v 19 1 20
v 20 1 20
v 19 1 19
v 19 1 13
v 19 1 12
v 20 1 12
v 12 2 20
v 19 2 20
v 13 2 19
v 19 2 19
v 14 2 18
v 15 2 18
v 16 2 18
v 18 2 18
v 14 2 17
v 15 2 17
v 16 2 17
v 14 2 16
v 15 2 16
v 17 2 16
v 18 2 16
v 16 2 15
v 17 2 15
v 18 2 15
v 14 2 14
v 16 2 14
v 17 2 14
v 18 2 14
v 13 2 13
v 19 2 13
v 12 2 12
v 19 2 12

# faces
f 3/1/1 2/1/1 1/1/1
f 4/1/1 2/1/1 3/1/1
f 5/1/2 6/1/2 9/1/2
f 6/2/2 7/2/2 10/2/2
f 9/1/2 6/1/2 10/1/2
f 7/1/2 8/1/2 11/1/2
f 10/2/2 7/2/2 11/2/2
f 11/1/2 8/1/2 12/1/2
f 13/1/2 14/1/2 15/1/2
f 15/1/2 14/1/2 16/1/2
f 19/1/3 18/1/3 17/1/3
f 20/1/3 18/1/3 19/1/3
f 21/1/3 19/1/3 17/1/3
f 22/1/3 19/1/3 21/1/3
f 23/1/4 24/1/4 25/1/4
f 25/1/4 24/1/4 26/1/4
f 23/1/4 25/1/4 27/1/4
f 27/1/4 25/1/4 28/1/4
f 31/1/5 30/1/5 29/1/5
f 32/1/5 30/1/5 31/1/5
f 33/2/5 32/2/5 31/2/5
f 34/2/5 32/2/5 33/2/5
f 35/2/5 32/2/5 34/2/5
f 36/2/5 32/2/5 35/2/5
f 37/2/5 33/2/5 31/2/5
f 37/1/5 34/1/5 33/1/5
f 38/2/5 35/2/5 34/2/5
f 38/1/5 34/1/5 37/1/5
f 39/1/5 36/1/5 35/1/5
f 39/2/5 35/2/5 38/2/5
f 40/2/5 38/2/5 37/2/5
f 40/2/5 37/2/5 31/2/5
f 41/1/5 39/1/5 38/1/5
f 41/2/5 38/2/5 40/2/5
f 42/1/5 36/1/5 39/1/5
f 42/1/5 39/1/5 41/1/5
f 43/2/5 32/2/5 36/2/5
f 43/1/5 36/1/5 42/1/5
f 44/1/5 42/1/5 41/1/5
f 44/1/5 41/1/5 40/1/5
f 45/2/5 43/2/5 42/2/5
f 45/1/5 42/1/5 44/1/5
f 46/2/5 32/2/5 43/2/5
f 46/2/5 43/2/5 45/2/5
f 47/1/5 44/1/5 40/1/5
f 47/2/5 40/2/5 31/2/5
f 48/2/5 45/2/5 44/2/5
f 48/1/5 44/1/5 47/1/5
f 49/1/5 46/1/5 45/1/5
f 49/2/5 45/2/5 48/2/5
f 50/2/5 32/2/5 46/2/5
f 50/1/5 46/1/5 49/1/5
f 51/1/5 31/1/5 29/1/5
f 51/2/5 47/2/5 31/2/5
f 51/2/5 50/2/5 49/2/5
f 51/2/5 48/2/5 47/2/5
f 51/2/5 49/2/5 48/2/5
f 52/2/5 32/2/5 50/2/5
f 52/2/5 50/2/5 51/2/5
f 52/1/5 30/1/5 32/1/5
f 53/1/5 51/1/5 29/1/5
f 53/1/5 52/1/5 51/1/5
f 54/1/5 30/1/5 52/1/5
f 54/1/5 52/1/5 53/1/5
f 55/1/6 56/1/6 57/1/6
f 57/1/6 56/1/6 58/1/6
f 58/1/6 56/1/6 59/1/6
f 59/1/6 56/1/6 60/1/6
f 61/1/6 62/1/6 63/1/6
f 63/1/6 62/1/6 64/1/6
f 63/2/6 64/2/6 65/2/6
f 65/2/6 64/2/6 66/2/6
f 66/2/6 64/2/6 67/2/6
f 67/2/6 64/2/6 68/2/6
f 63/2/6 65/2/6 69/2/6
f 65/1/6 66/1/6 69/1/6
f 66/2/6 67/2/6 70/2/6
f 69/1/6 66/1/6 70/1/6
f 67/1/6 68/1/6 71/1/6
f 70/2/6 67/2/6 71/2/6
f 69/2/6 70/2/6 72/2/6
f 63/2/6 69/2/6 72/2/6
f 70/1/6 71/1/6 73/1/6
f 72/2/6 70/2/6 73/2/6
f 71/1/6 68/1/6 74/1/6
f 73/1/6 71/1/6 74/1/6
f 68/2/6 64/2/6 75/2/6
f 74/1/6 68/1/6 75/1/6
f 73/1/6 74/1/6 76/1/6
f 72/1/6 73/1/6 76/1/6
f 74/2/6 75/2/6 77/2/6
f 76/1/6 74/1/6 77/1/6
f 75/2/6 64/2/6 78/2/6
f 77/2/6 75/2/6 78/2/6
f 72/1/6 76/1/6 79/1/6
f 63/2/6 72/2/6 79/2/6
f 76/2/6 77/2/6 80/2/6
f 79/1/6 76/1/6 80/1/6
f 77/1/6 78/1/6 81/1/6
f 80/2/6 77/2/6 81/2/6
f 78/2/6 64/2/6 82/2/6
f 81/1/6 78/1/6 82/1/6
f 61/1/6 63/1/6 83/1/6
f 63/2/6 79/2/6 83/2/6
f 81/2/6 82/2/6 83/2/6
f 79/2/6 80/2/6 83/2/6
f 80/2/6 81/2/6 83/2/6
f 82/2/6 64/2/6 84/2/6
f 83/2/6 82/2/6 84/2/6
f 61/1/6 83/1/6 85/1/6
f 83/1/6 84/1/6 85/1/6
f 85/1/6 84/1/6 86/1/6
