# MagicaVoxel @ Ephtracy

# material
mtllib doubledoors.mtl
usemtl palette

# normals
vn -1 0 0
vn 1 0 0
vn 0 0 1
vn 0 0 -1
vn 0 -1 0
vn 0 1 0

# texcoords
vt 0.962891 0.5
vt 0.986328 0.5
vt 0.994141 0.5

# verts
v -19 0 2
v -19 0 -2
v -19 20 2
v -19 20 -2
v -5 8 2
v -5 8 1
v -5 8 -1
v -5 8 -2
v -5 9 2
v -5 9 1
v -5 9 -1
v -5 9 -2
v -3 7 2
v -3 7 1
v -3 7 -1
v -3 7 -2
v -3 8 2
v -3 8 1
v -3 8 -1
v -3 8 -2
v 2 7 2
v 2 7 1
v 2 7 -1
v 2 7 -2
v 2 9 2
v 2 9 1
v 2 9 -1
v 2 9 -2
v 18 0 2
v 18 0 1
v 18 0 -1
v 18 0 -2
v 18 20 2
v 18 20 1
v 18 20 -1
v 18 20 -2
v -18 0 2
v -18 0 1
v -18 0 -1
v -18 0 -2
v -18 20 2
v -18 20 1
v -18 20 -1
v -18 20 -2
v -2 7 2
v -2 7 1
v -2 7 -1
v -2 7 -2
v -2 9 2
v -2 9 1
v -2 9 -1
v -2 9 -2
v 3 7 2
v 3 7 1
v 3 7 -1
v 3 7 -2
v 3 8 2
v 3 8 1
v 3 8 -1
v 3 8 -2
v 5 8 2
v 5 8 1
v 5 8 -1
v 5 8 -2
v 5 9 2
v 5 9 1
v 5 9 -1
v 5 9 -2
v 19 0 2
v 19 0 -2
v 19 20 2
v 19 20 -2
v -19 0 2
v -19 20 2
v -18 0 2
v -18 20 2
v -5 8 2
v -5 9 2
v -3 7 2
v -3 8 2
v -2 7 2
v -2 9 2
v 2 7 2
v 2 9 2
v 3 7 2
v 3 8 2
v 5 8 2
v 5 9 2
v 18 0 2
v 18 20 2
v 19 0 2
v 19 20 2
v -18 0 1
v -18 20 1
v -17 0 1
v -17 20 1
v -5 8 1
v -5 9 1
v -3 7 1
v -3 8 1
v -2 7 1
v -2 9 1
v -1 0 1
v -1 20 1
v 1 0 1
v 1 20 1
v 2 7 1
v 2 9 1
v 3 7 1
v 3 8 1
v 5 8 1
v 5 9 1
v 17 0 1
v 17 20 1
v 18 0 1
v 18 20 1
v -18 0 -1
v -18 20 -1
v -17 0 -1
v -17 20 -1
v -5 8 -1
v -5 9 -1
v -3 7 -1
v -3 8 -1
v -2 7 -1
v -2 9 -1
v -1 0 -1
v -1 20 -1
v 1 0 -1
v 1 20 -1
v 2 7 -1
v 2 9 -1
v 3 7 -1
v 3 8 -1
v 5 8 -1
v 5 9 -1
v 17 0 -1
v 17 20 -1
v 18 0 -1
v 18 20 -1
v -19 0 -2
v -19 20 -2
v -18 0 -2
v -18 20 -2
v -5 8 -2
v -5 9 -2
v -3 7 -2
v -3 8 -2
v -2 7 -2
v -2 9 -2
v 2 7 -2
v 2 9 -2
v 3 7 -2
v 3 8 -2
v 5 8 -2
v 5 9 -2
v 18 0 -2
v 18 20 -2
v 19 0 -2
v 19 20 -2
v -19 0 2
v -18 0 2
v 18 0 2
v 19 0 2
v -18 0 1
v -17 0 1
v -1 0 1
v 1 0 1
v 17 0 1
v 18 0 1
v -18 0 -1
v -17 0 -1
v -1 0 -1
v 1 0 -1
v 17 0 -1
v 18 0 -1
v -19 0 -2
v -18 0 -2
v 18 0 -2
v 19 0 -2
v -3 7 2
v -2 7 2
v 2 7 2
v 3 7 2
v -3 7 1
v -2 7 1
v 2 7 1
v 3 7 1
v -3 7 -1
v -2 7 -1
v 2 7 -1
v 3 7 -1
v -3 7 -2
v -2 7 -2
v 2 7 -2
v 3 7 -2
v -5 8 2
v -3 8 2
v 3 8 2
v 5 8 2
v -5 8 1
v -3 8 1
v 3 8 1
v 5 8 1
v -5 8 -1
v -3 8 -1
v 3 8 -1
v 5 8 -1
v -5 8 -2
v -3 8 -2
v 3 8 -2
v 5 8 -2
v -5 9 2
v -2 9 2
v 2 9 2
v 5 9 2
v -5 9 1
v -2 9 1
v 2 9 1
v 5 9 1
v -5 9 -1
v -2 9 -1
v 2 9 -1
v 5 9 -1
v -5 9 -2
v -2 9 -2
v 2 9 -2
v 5 9 -2
v -19 20 2
v -18 20 2
v 18 20 2
v 19 20 2
v -18 20 1
v -17 20 1
v -1 20 1
v 1 20 1
v 17 20 1
v 18 20 1
v -18 20 -1
v -17 20 -1
v -1 20 -1
v 1 20 -1
v 17 20 -1
v 18 20 -1
v -19 20 -2
v -18 20 -2
v 18 20 -2
v 19 20 -2

# faces
f 3/3/1 2/3/1 1/3/1
f 4/3/1 2/3/1 3/3/1
f 9/1/1 6/1/1 5/1/1
f 10/1/1 6/1/1 9/1/1
f 11/1/1 8/1/1 7/1/1
f 12/1/1 8/1/1 11/1/1
f 17/1/1 14/1/1 13/1/1
f 18/1/1 14/1/1 17/1/1
f 19/1/1 16/1/1 15/1/1
f 20/1/1 16/1/1 19/1/1
f 25/1/1 22/1/1 21/1/1
f 26/1/1 22/1/1 25/1/1
f 27/1/1 24/1/1 23/1/1
f 28/1/1 24/1/1 27/1/1
f 33/3/1 30/3/1 29/3/1
f 34/3/1 30/3/1 33/3/1
f 35/3/1 32/3/1 31/3/1
f 36/3/1 32/3/1 35/3/1
f 37/3/2 38/3/2 41/3/2
f 41/3/2 38/3/2 42/3/2
f 39/3/2 40/3/2 43/3/2
f 43/3/2 40/3/2 44/3/2
f 45/1/2 46/1/2 49/1/2
f 49/1/2 46/1/2 50/1/2
f 47/1/2 48/1/2 51/1/2
f 51/1/2 48/1/2 52/1/2
f 53/1/2 54/1/2 57/1/2
f 57/1/2 54/1/2 58/1/2
f 55/1/2 56/1/2 59/1/2
f 59/1/2 56/1/2 60/1/2
f 61/1/2 62/1/2 65/1/2
f 65/1/2 62/1/2 66/1/2
f 63/1/2 64/1/2 67/1/2
f 67/1/2 64/1/2 68/1/2
f 69/3/2 70/3/2 71/3/2
f 71/3/2 70/3/2 72/3/2
f 75/3/3 74/3/3 73/3/3
f 76/3/3 74/3/3 75/3/3
f 80/1/3 78/1/3 77/1/3
f 81/1/3 80/1/3 79/1/3
f 82/1/3 78/1/3 80/1/3
f 82/1/3 80/1/3 81/1/3
f 85/1/3 84/1/3 83/1/3
f 86/1/3 84/1/3 85/1/3
f 87/1/3 84/1/3 86/1/3
f 88/1/3 84/1/3 87/1/3
f 91/3/3 90/3/3 89/3/3
f 92/3/3 90/3/3 91/3/3
f 95/3/3 94/3/3 93/3/3
f 96/3/3 94/3/3 95/3/3
f 97/2/3 96/2/3 95/2/3
f 98/2/3 96/2/3 97/2/3
f 99/2/3 97/2/3 95/2/3
f 100/2/3 97/2/3 99/2/3
f 101/2/3 99/2/3 95/2/3
f 102/2/3 96/2/3 98/2/3
f 103/2/3 101/2/3 95/2/3
f 103/2/3 102/2/3 101/2/3
f 104/2/3 96/2/3 102/2/3
f 104/2/3 102/2/3 103/2/3
f 105/3/3 104/3/3 103/3/3
f 106/3/3 104/3/3 105/3/3
f 107/2/3 106/2/3 105/2/3
f 108/2/3 106/2/3 107/2/3
f 109/2/3 107/2/3 105/2/3
f 111/2/3 110/2/3 109/2/3
f 112/2/3 106/2/3 108/2/3
f 113/2/3 111/2/3 109/2/3
f 113/2/3 112/2/3 111/2/3
f 113/2/3 109/2/3 105/2/3
f 114/2/3 106/2/3 112/2/3
f 114/2/3 112/2/3 113/2/3
f 115/3/3 114/3/3 113/3/3
f 116/3/3 114/3/3 115/3/3
f 117/3/4 118/3/4 119/3/4
f 119/3/4 118/3/4 120/3/4
f 119/2/4 120/2/4 121/2/4
f 121/2/4 120/2/4 122/2/4
f 119/2/4 121/2/4 123/2/4
f 123/2/4 121/2/4 124/2/4
f 119/2/4 123/2/4 125/2/4
f 122/2/4 120/2/4 126/2/4
f 119/2/4 125/2/4 127/2/4
f 125/2/4 126/2/4 127/2/4
f 126/2/4 120/2/4 128/2/4
f 127/2/4 126/2/4 128/2/4
f 127/3/4 128/3/4 129/3/4
f 129/3/4 128/3/4 130/3/4
f 129/2/4 130/2/4 131/2/4
f 131/2/4 130/2/4 132/2/4
f 129/2/4 131/2/4 133/2/4
f 133/2/4 134/2/4 135/2/4
f 132/2/4 130/2/4 136/2/4
f 133/2/4 135/2/4 137/2/4
f 135/2/4 136/2/4 137/2/4
f 129/2/4 133/2/4 137/2/4
f 136/2/4 130/2/4 138/2/4
f 137/2/4 136/2/4 138/2/4
f 137/3/4 138/3/4 139/3/4
f 139/3/4 138/3/4 140/3/4
f 141/3/4 142/3/4 143/3/4
f 143/3/4 142/3/4 144/3/4
f 145/1/4 146/1/4 148/1/4
f 147/1/4 148/1/4 149/1/4
f 148/1/4 146/1/4 150/1/4
f 149/1/4 148/1/4 150/1/4
f 151/1/4 152/1/4 153/1/4
f 153/1/4 152/1/4 154/1/4
f 154/1/4 152/1/4 155/1/4
f 155/1/4 152/1/4 156/1/4
f 157/3/4 158/3/4 159/3/4
f 159/3/4 158/3/4 160/3/4
f 165/3/5 162/3/5 161/3/5
f 170/3/5 164/3/5 163/3/5
f 171/3/5 165/3/5 161/3/5
f 171/3/5 166/3/5 165/3/5
f 172/2/5 167/2/5 166/2/5
f 172/3/5 166/3/5 171/3/5
f 173/3/5 168/3/5 167/3/5
f 173/2/5 167/2/5 172/2/5
f 174/2/5 169/2/5 168/2/5
f 174/3/5 168/3/5 173/3/5
f 175/3/5 170/3/5 169/3/5
f 175/2/5 169/2/5 174/2/5
f 176/3/5 164/3/5 170/3/5
f 176/3/5 170/3/5 175/3/5
f 177/3/5 171/3/5 161/3/5
f 178/3/5 171/3/5 177/3/5
f 179/3/5 164/3/5 176/3/5
f 180/3/5 164/3/5 179/3/5
f 185/1/5 182/1/5 181/1/5
f 186/1/5 182/1/5 185/1/5
f 187/1/5 184/1/5 183/1/5
f 188/1/5 184/1/5 187/1/5
f 193/1/5 190/1/5 189/1/5
f 194/1/5 190/1/5 193/1/5
f 195/1/5 192/1/5 191/1/5
f 196/1/5 192/1/5 195/1/5
f 201/1/5 198/1/5 197/1/5
f 202/1/5 198/1/5 201/1/5
f 203/1/5 200/1/5 199/1/5
f 204/1/5 200/1/5 203/1/5
f 209/1/5 206/1/5 205/1/5
f 210/1/5 206/1/5 209/1/5
f 211/1/5 208/1/5 207/1/5
f 212/1/5 208/1/5 211/1/5
f 213/1/6 214/1/6 217/1/6
f 217/1/6 214/1/6 218/1/6
f 215/1/6 216/1/6 219/1/6
f 219/1/6 216/1/6 220/1/6
f 221/1/6 222/1/6 225/1/6
f 225/1/6 222/1/6 226/1/6
f 223/1/6 224/1/6 227/1/6
f 227/1/6 224/1/6 228/1/6
f 229/3/6 230/3/6 233/3/6
f 231/3/6 232/3/6 238/3/6
f 229/3/6 233/3/6 239/3/6
f 233/3/6 234/3/6 239/3/6
f 234/2/6 235/2/6 240/2/6
f 239/3/6 234/3/6 240/3/6
f 235/3/6 236/3/6 241/3/6
f 240/2/6 235/2/6 241/2/6
f 236/2/6 237/2/6 242/2/6
f 241/3/6 236/3/6 242/3/6
f 237/3/6 238/3/6 243/3/6
f 242/2/6 237/2/6 243/2/6
f 238/3/6 232/3/6 244/3/6
f 243/3/6 238/3/6 244/3/6
f 229/3/6 239/3/6 245/3/6
f 245/3/6 239/3/6 246/3/6
f 244/3/6 232/3/6 247/3/6
f 247/3/6 232/3/6 248/3/6
