# MagicaVoxel @ Ephtracy

# material
mtllib spawner.mtl
usemtl palette

# normals
vn -1 0 0
vn 1 0 0
vn 0 0 1
vn 0 0 -1
vn 0 -1 0
vn 0 1 0

# texcoords
vt 0.0566406 0.5
vt 0.845703 0.5

# verts
v -1.5 0 3
v -1.5 0 -3
v -1.5 1 4
v -1.5 1 3
v -1.5 1 -2
v -1.5 1 -3
v -1.5 1 -4
v -1.5 2 5
v -1.5 2 4
v -1.5 2 3
v -1.5 2 -1
v -1.5 2 -2
v -1.5 2 -4
v -1.5 2 -5
v -1.5 3 -0
v -1.5 3 -1
v -1.5 3 -3
v -1.5 3 -4
v -1.5 4 1
v -1.5 4 -0
v -1.5 4 -2
v -1.5 4 -3
v -1.5 5 2
v -1.5 5 1
v -1.5 5 -1
v -1.5 5 -2
v -1.5 6 3
v -1.5 6 2
v -1.5 6 -0
v -1.5 6 -1
v -1.5 7 4
v -1.5 7 3
v -1.5 7 1
v -1.5 7 -0
v -1.5 8 5
v -1.5 8 4
v -1.5 8 2
v -1.5 8 1
v -1.5 8 -3
v -1.5 8 -4
v -1.5 8 -5
v -1.5 9 4
v -1.5 9 3
v -1.5 9 2
v -1.5 9 -3
v -1.5 9 -4
v -1.5 10 3
v -1.5 10 -3
v -0.5 2 1
v -0.5 2 -1
v -0.5 3 2
v -0.5 3 1
v -0.5 3 -0
v -0.5 3 -1
v -0.5 4 3
v -0.5 4 2
v -0.5 4 1
v -0.5 4 -0
v -0.5 4 -2
v -0.5 4 -3
v -0.5 5 2
v -0.5 5 1
v -0.5 5 -1
v -0.5 5 -2
v -0.5 6 3
v -0.5 6 2
v -0.5 6 -0
v -0.5 6 -1
v -0.5 7 -0
v -0.5 7 -1
v -0.5 7 -2
v -0.5 7 -3
v -0.5 8 -1
v -0.5 8 -2
v 0.5 0 3
v 0.5 0 -3
v 0.5 1 4
v 0.5 1 3
v 0.5 1 -2
v 0.5 1 -3
v 0.5 1 -4
v 0.5 2 5
v 0.5 2 4
v 0.5 2 3
v 0.5 2 -1
v 0.5 2 -2
v 0.5 2 -4
v 0.5 2 -5
v 0.5 3 -1
v 0.5 3 -2
v 0.5 3 -3
v 0.5 3 -4
v 0.5 4 -2
v 0.5 4 -3
v 0.5 7 4
v 0.5 7 3
v 0.5 7 2
v 0.5 8 5
v 0.5 8 4
v 0.5 8 2
v 0.5 8 -3
v 0.5 8 -4
v 0.5 8 -5
v 0.5 9 4
v 0.5 9 3
v 0.5 9 2
v 0.5 9 -3
v 0.5 9 -4
v 0.5 10 3
v 0.5 10 -3
v -0.5 0 3
v -0.5 0 -3
v -0.5 1 4
v -0.5 1 3
v -0.5 1 -2
v -0.5 1 -3
v -0.5 1 -4
v -0.5 2 5
v -0.5 2 4
v -0.5 2 3
v -0.5 2 -1
v -0.5 2 -2
v -0.5 2 -4
v -0.5 2 -5
v -0.5 3 -1
v -0.5 3 -2
v -0.5 3 -3
v -0.5 3 -4
v -0.5 4 -2
v -0.5 4 -3
v -0.5 7 4
v -0.5 7 3
v -0.5 7 2
v -0.5 8 5
v -0.5 8 4
v -0.5 8 2
v -0.5 8 -3
v -0.5 8 -4
v -0.5 8 -5
v -0.5 9 4
v -0.5 9 3
v -0.5 9 2
v -0.5 9 -3
v -0.5 9 -4
v -0.5 10 3
v -0.5 10 -3
v 0.5 2 1
v 0.5 2 -1
v 0.5 3 2
v 0.5 3 1
v 0.5 3 -0
v 0.5 3 -1
v 0.5 4 3
v 0.5 4 2
v 0.5 4 1
v 0.5 4 -0
v 0.5 4 -2
v 0.5 4 -3
v 0.5 5 2
v 0.5 5 1
v 0.5 5 -1
v 0.5 5 -2
v 0.5 6 3
v 0.5 6 2
v 0.5 6 -0
v 0.5 6 -1
v 0.5 7 -0
v 0.5 7 -1
v 0.5 7 -2
v 0.5 7 -3
v 0.5 8 -1
v 0.5 8 -2
v 1.5 0 3
v 1.5 0 -3
v 1.5 1 4
v 1.5 1 3
v 1.5 1 -2
v 1.5 1 -3
v 1.5 1 -4
v 1.5 2 5
v 1.5 2 4
v 1.5 2 3
v 1.5 2 -1
v 1.5 2 -2
v 1.5 2 -4
v 1.5 2 -5
v 1.5 3 -0
v 1.5 3 -1
v 1.5 3 -3
v 1.5 3 -4
v 1.5 4 1
v 1.5 4 -0
v 1.5 4 -2
v 1.5 4 -3
v 1.5 5 2
v 1.5 5 1
v 1.5 5 -1
v 1.5 5 -2
v 1.5 6 3
v 1.5 6 2
v 1.5 6 -0
v 1.5 6 -1
v 1.5 7 4
v 1.5 7 3
v 1.5 7 1
v 1.5 7 -0
v 1.5 8 5
v 1.5 8 4
v 1.5 8 2
v 1.5 8 1
v 1.5 8 -3
v 1.5 8 -4
v 1.5 8 -5
v 1.5 9 4
v 1.5 9 3
v 1.5 9 2
v 1.5 9 -3
v 1.5 9 -4
v 1.5 10 3
v 1.5 10 -3
v -1.5 2 5
v -1.5 8 5
v -0.5 2 5
v -0.5 8 5
v 0.5 2 5
v 0.5 8 5
v 1.5 2 5
v 1.5 8 5
v -1.5 1 4
v -1.5 2 4
v -1.5 8 4
v -1.5 9 4
v -0.5 1 4
v -0.5 2 4
v -0.5 8 4
v -0.5 9 4
v 0.5 1 4
v 0.5 2 4
v 0.5 8 4
v 0.5 9 4
v 1.5 1 4
v 1.5 2 4
v 1.5 8 4
v 1.5 9 4
v -1.5 0 3
v -1.5 1 3
v -1.5 6 3
v -1.5 7 3
v -1.5 9 3
v -1.5 10 3
v -0.5 0 3
v -0.5 1 3
v -0.5 4 3
v -0.5 6 3
v -0.5 7 3
v -0.5 9 3
v -0.5 10 3
v 0.5 0 3
v 0.5 1 3
v 0.5 4 3
v 0.5 6 3
v 0.5 7 3
v 0.5 9 3
v 0.5 10 3
v 1.5 0 3
v 1.5 1 3
v 1.5 6 3
v 1.5 7 3
v 1.5 9 3
v 1.5 10 3
v -1.5 5 2
v -1.5 6 2
v -0.5 3 2
v -0.5 4 2
v -0.5 5 2
v -0.5 6 2
v -0.5 7 2
v -0.5 8 2
v 0.5 3 2
v 0.5 4 2
v 0.5 5 2
v 0.5 6 2
v 0.5 7 2
v 0.5 8 2
v 1.5 5 2
v 1.5 6 2
v -1.5 4 1
v -1.5 5 1
v -0.5 2 1
v -0.5 3 1
v -0.5 4 1
v -0.5 5 1
v 0.5 2 1
v 0.5 3 1
v 0.5 4 1
v 0.5 5 1
v 1.5 4 1
v 1.5 5 1
v -1.5 3 -0
v -1.5 4 -0
v -0.5 3 -0
v -0.5 4 -0
v 0.5 3 -0
v 0.5 4 -0
v 1.5 3 -0
v 1.5 4 -0
v -1.5 2 -1
v -1.5 3 -1
v -0.5 2 -1
v -0.5 3 -1
v -0.5 7 -1
v -0.5 8 -1
v 0.5 2 -1
v 0.5 3 -1
v 0.5 7 -1
v 0.5 8 -1
v 1.5 2 -1
v 1.5 3 -1
v -1.5 1 -2
v -1.5 2 -2
v -0.5 1 -2
v -0.5 2 -2
v 0.5 1 -2
v 0.5 2 -2
v 1.5 1 -2
v 1.5 2 -2
v -1.5 8 -3
v -1.5 9 -3
v -0.5 8 -3
v -0.5 9 -3
v 0.5 8 -3
v 0.5 9 -3
v 1.5 8 -3
v 1.5 9 -3
v -1.5 3 -4
v -1.5 8 -4
v -0.5 3 -4
v -0.5 8 -4
v 0.5 3 -4
v 0.5 8 -4
v 1.5 3 -4
v 1.5 8 -4
v -1.5 2 4
v -1.5 7 4
v -0.5 2 4
v -0.5 7 4
v 0.5 2 4
v 0.5 7 4
v 1.5 2 4
v 1.5 7 4
v -1.5 1 3
v -1.5 2 3
v -0.5 1 3
v -0.5 2 3
v 0.5 1 3
v 0.5 2 3
v 1.5 1 3
v 1.5 2 3
v -1.5 8 2
v -1.5 9 2
v -0.5 8 2
v -0.5 9 2
v 0.5 8 2
v 0.5 9 2
v 1.5 8 2
v 1.5 9 2
v -1.5 7 1
v -1.5 8 1
v -0.5 7 1
v -0.5 8 1
v 0.5 7 1
v 0.5 8 1
v 1.5 7 1
v 1.5 8 1
v -1.5 6 -0
v -1.5 7 -0
v -0.5 6 -0
v -0.5 7 -0
v 0.5 6 -0
v 0.5 7 -0
v 1.5 6 -0
v 1.5 7 -0
v -1.5 5 -1
v -1.5 6 -1
v -0.5 2 -1
v -0.5 3 -1
v -0.5 5 -1
v -0.5 6 -1
v 0.5 2 -1
v 0.5 3 -1
v 0.5 5 -1
v 0.5 6 -1
v 1.5 5 -1
v 1.5 6 -1
v -1.5 4 -2
v -1.5 5 -2
v -0.5 3 -2
v -0.5 4 -2
v -0.5 5 -2
v -0.5 7 -2
v -0.5 8 -2
v 0.5 3 -2
v 0.5 4 -2
v 0.5 5 -2
v 0.5 7 -2
v 0.5 8 -2
v 1.5 4 -2
v 1.5 5 -2
v -1.5 0 -3
v -1.5 1 -3
v -1.5 3 -3
v -1.5 4 -3
v -1.5 9 -3
v -1.5 10 -3
v -0.5 0 -3
v -0.5 1 -3
v -0.5 3 -3
v -0.5 4 -3
v -0.5 7 -3
v -0.5 9 -3
v -0.5 10 -3
v 0.5 0 -3
v 0.5 1 -3
v 0.5 3 -3
v 0.5 4 -3
v 0.5 7 -3
v 0.5 9 -3
v 0.5 10 -3
v 1.5 0 -3
v 1.5 1 -3
v 1.5 3 -3
v 1.5 4 -3
v 1.5 9 -3
v 1.5 10 -3
v -1.5 1 -4
v -1.5 2 -4
v -1.5 8 -4
v -1.5 9 -4
v -0.5 1 -4
v -0.5 2 -4
v -0.5 8 -4
v -0.5 9 -4
v 0.5 1 -4
v 0.5 2 -4
v 0.5 8 -4
v 0.5 9 -4
v 1.5 1 -4
v 1.5 2 -4
v 1.5 8 -4
v 1.5 9 -4
v -1.5 2 -5
v -1.5 8 -5
v -0.5 2 -5
v -0.5 8 -5
v 0.5 2 -5
v 0.5 8 -5
v 1.5 2 -5
v 1.5 8 -5
v -1.5 0 3
v -0.5 0 3
v 0.5 0 3
v 1.5 0 3
v -1.5 0 -3
v -0.5 0 -3
v 0.5 0 -3
v 1.5 0 -3
v -1.5 1 4
v -0.5 1 4
v 0.5 1 4
v 1.5 1 4
v -1.5 1 3
v -0.5 1 3
v 0.5 1 3
v 1.5 1 3
v -1.5 1 -3
v -0.5 1 -3
v 0.5 1 -3
v 1.5 1 -3
v -1.5 1 -4
v -0.5 1 -4
v 0.5 1 -4
v 1.5 1 -4
v -1.5 2 5
v -0.5 2 5
v 0.5 2 5
v 1.5 2 5
v -1.5 2 4
v -0.5 2 4
v 0.5 2 4
v 1.5 2 4
v -0.5 2 1
v 0.5 2 1
v -1.5 2 -1
v -0.5 2 -1
v 0.5 2 -1
v 1.5 2 -1
v -1.5 2 -2
v -0.5 2 -2
v 0.5 2 -2
v 1.5 2 -2
v -1.5 2 -4
v -0.5 2 -4
v 0.5 2 -4
v 1.5 2 -4
v -1.5 2 -5
v -0.5 2 -5
v 0.5 2 -5
v 1.5 2 -5
v -0.5 3 2
v 0.5 3 2
v -0.5 3 1
v 0.5 3 1
v -1.5 3 -0
v -0.5 3 -0
v 0.5 3 -0
v 1.5 3 -0
v -1.5 3 -1
v -0.5 3 -1
v 0.5 3 -1
v 1.5 3 -1
v -0.5 3 -2
v 0.5 3 -2
v -0.5 4 3
v 0.5 4 3
v -0.5 4 2
v 0.5 4 2
v -1.5 4 1
v -0.5 4 1
v 0.5 4 1
v 1.5 4 1
v -1.5 4 -0
v -0.5 4 -0
v 0.5 4 -0
v 1.5 4 -0
v -0.5 4 -2
v 0.5 4 -2
v -0.5 4 -3
v 0.5 4 -3
v -1.5 5 2
v -0.5 5 2
v 0.5 5 2
v 1.5 5 2
v -1.5 5 1
v -0.5 5 1
v 0.5 5 1
v 1.5 5 1
v -1.5 6 3
v -0.5 6 3
v 0.5 6 3
v 1.5 6 3
v -1.5 6 2
v -0.5 6 2
v 0.5 6 2
v 1.5 6 2
v -1.5 7 4
v -0.5 7 4
v 0.5 7 4
v 1.5 7 4
v -1.5 7 3
v -0.5 7 3
v 0.5 7 3
v 1.5 7 3
v -1.5 8 -3
v -0.5 8 -3
v 0.5 8 -3
v 1.5 8 -3
v -1.5 8 -4
v -0.5 8 -4
v 0.5 8 -4
v 1.5 8 -4
v -1.5 9 2
v -0.5 9 2
v 0.5 9 2
v 1.5 9 2
v -1.5 9 -3
v -0.5 9 -3
v 0.5 9 -3
v 1.5 9 -3
v -1.5 1 3
v -0.5 1 3
v 0.5 1 3
v 1.5 1 3
v -1.5 1 -2
v -0.5 1 -2
v 0.5 1 -2
v 1.5 1 -2
v -1.5 2 4
v -0.5 2 4
v 0.5 2 4
v 1.5 2 4
v -1.5 2 3
v -0.5 2 3
v 0.5 2 3
v 1.5 2 3
v -1.5 3 -3
v -0.5 3 -3
v 0.5 3 -3
v 1.5 3 -3
v -1.5 3 -4
v -0.5 3 -4
v 0.5 3 -4
v 1.5 3 -4
v -1.5 4 -2
v -0.5 4 -2
v 0.5 4 -2
v 1.5 4 -2
v -1.5 4 -3
v -0.5 4 -3
v 0.5 4 -3
v 1.5 4 -3
v -1.5 5 -1
v -0.5 5 -1
v 0.5 5 -1
v 1.5 5 -1
v -1.5 5 -2
v -0.5 5 -2
v 0.5 5 -2
v 1.5 5 -2
v -1.5 6 -0
v -0.5 6 -0
v 0.5 6 -0
v 1.5 6 -0
v -1.5 6 -1
v -0.5 6 -1
v 0.5 6 -1
v 1.5 6 -1
v -0.5 7 3
v 0.5 7 3
v -0.5 7 2
v 0.5 7 2
v -1.5 7 1
v -0.5 7 1
v 0.5 7 1
v 1.5 7 1
v -1.5 7 -0
v -0.5 7 -0
v 0.5 7 -0
v 1.5 7 -0
v -0.5 7 -1
v 0.5 7 -1
v -0.5 7 -2
v 0.5 7 -2
v -0.5 7 -3
v 0.5 7 -3
v -1.5 8 5
v -0.5 8 5
v 0.5 8 5
v 1.5 8 5
v -1.5 8 4
v -0.5 8 4
v 0.5 8 4
v 1.5 8 4
v -1.5 8 2
v -0.5 8 2
v 0.5 8 2
v 1.5 8 2
v -1.5 8 1
v -0.5 8 1
v 0.5 8 1
v 1.5 8 1
v -0.5 8 -1
v 0.5 8 -1
v -0.5 8 -2
v 0.5 8 -2
v -1.5 8 -4
v -0.5 8 -4
v 0.5 8 -4
v 1.5 8 -4
v -1.5 8 -5
v -0.5 8 -5
v 0.5 8 -5
v 1.5 8 -5
v -1.5 9 4
v -0.5 9 4
v 0.5 9 4
v 1.5 9 4
v -1.5 9 3
v -0.5 9 3
v 0.5 9 3
v 1.5 9 3
v -1.5 9 -3
v -0.5 9 -3
v 0.5 9 -3
v 1.5 9 -3
v -1.5 9 -4
v -0.5 9 -4
v 0.5 9 -4
v 1.5 9 -4
v -1.5 10 3
v -0.5 10 3
v 0.5 10 3
v 1.5 10 3
v -1.5 10 -3
v -0.5 10 -3
v 0.5 10 -3
v 1.5 10 -3

# faces
f 4/2/1 2/2/1 1/2/1
f 5/2/1 2/2/1 4/2/1
f 6/2/1 2/2/1 5/2/1
f 9/2/1 4/2/1 3/2/1
f 10/2/1 4/2/1 9/2/1
f 12/2/1 6/2/1 5/2/1
f 12/2/1 7/2/1 6/2/1
f 13/2/1 7/2/1 12/2/1
f 16/2/1 14/2/1 13/2/1
f 16/2/1 13/2/1 12/2/1
f 16/2/1 12/2/1 11/2/1
f 17/2/1 14/2/1 16/2/1
f 18/2/1 14/2/1 17/2/1
f 20/2/1 16/2/1 15/2/1
f 20/2/1 17/2/1 16/2/1
f 21/2/1 17/2/1 20/2/1
f 22/2/1 17/2/1 21/2/1
f 24/2/1 20/2/1 19/2/1
f 24/2/1 21/2/1 20/2/1
f 25/2/1 21/2/1 24/2/1
f 26/2/1 21/2/1 25/2/1
f 28/2/1 24/2/1 23/2/1
f 28/2/1 25/2/1 24/2/1
f 29/2/1 25/2/1 28/2/1
f 30/2/1 25/2/1 29/2/1
f 31/2/1 9/2/1 8/2/1
f 32/2/1 28/2/1 27/2/1
f 32/2/1 29/2/1 28/2/1
f 33/2/1 29/2/1 32/2/1
f 34/2/1 29/2/1 33/2/1
f 35/2/1 31/2/1 8/2/1
f 35/2/1 32/2/1 31/2/1
f 35/2/1 33/2/1 32/2/1
f 36/2/1 33/2/1 35/2/1
f 37/2/1 33/2/1 36/2/1
f 38/2/1 33/2/1 37/2/1
f 40/2/1 14/2/1 18/2/1
f 41/2/1 14/2/1 40/2/1
f 42/2/1 37/2/1 36/2/1
f 43/2/1 37/2/1 42/2/1
f 44/2/1 37/2/1 43/2/1
f 45/2/1 40/2/1 39/2/1
f 46/2/1 40/2/1 45/2/1
f 47/2/1 44/2/1 43/2/1
f 47/2/1 45/2/1 44/2/1
f 48/2/1 45/2/1 47/2/1
f 52/1/1 50/1/1 49/1/1
f 53/1/1 50/1/1 52/1/1
f 54/1/1 50/1/1 53/1/1
f 56/1/1 52/1/1 51/1/1
f 56/1/1 53/1/1 52/1/1
f 57/1/1 53/1/1 56/1/1
f 58/1/1 53/1/1 57/1/1
f 61/1/1 56/1/1 55/1/1
f 61/1/1 57/1/1 56/1/1
f 62/1/1 57/1/1 61/1/1
f 64/1/1 60/1/1 59/1/1
f 65/1/1 61/1/1 55/1/1
f 66/1/1 61/1/1 65/1/1
f 68/1/1 64/1/1 63/1/1
f 69/1/1 68/1/1 67/1/1
f 70/1/1 64/1/1 68/1/1
f 70/1/1 68/1/1 69/1/1
f 71/1/1 60/1/1 64/1/1
f 71/1/1 64/1/1 70/1/1
f 72/1/1 60/1/1 71/1/1
f 73/1/1 71/1/1 70/1/1
f 74/1/1 71/1/1 73/1/1
f 78/2/1 76/2/1 75/2/1
f 79/2/1 76/2/1 78/2/1
f 80/2/1 76/2/1 79/2/1
f 83/2/1 78/2/1 77/2/1
f 84/2/1 78/2/1 83/2/1
f 86/2/1 80/2/1 79/2/1
f 86/2/1 81/2/1 80/2/1
f 87/2/1 81/2/1 86/2/1
f 89/2/1 88/2/1 87/2/1
f 89/2/1 87/2/1 86/2/1
f 89/2/1 86/2/1 85/2/1
f 90/2/1 88/2/1 89/2/1
f 91/2/1 88/2/1 90/2/1
f 92/2/1 88/2/1 91/2/1
f 93/2/1 91/2/1 90/2/1
f 94/2/1 91/2/1 93/2/1
f 95/2/1 83/2/1 82/2/1
f 98/2/1 95/2/1 82/2/1
f 98/2/1 97/2/1 96/2/1
f 98/2/1 96/2/1 95/2/1
f 99/2/1 97/2/1 98/2/1
f 100/2/1 97/2/1 99/2/1
f 102/2/1 88/2/1 92/2/1
f 103/2/1 88/2/1 102/2/1
f 104/2/1 100/2/1 99/2/1
f 105/2/1 100/2/1 104/2/1
f 106/2/1 100/2/1 105/2/1
f 107/2/1 102/2/1 101/2/1
f 108/2/1 102/2/1 107/2/1
f 109/2/1 106/2/1 105/2/1
f 109/2/1 107/2/1 106/2/1
f 110/2/1 107/2/1 109/2/1
f 111/2/2 112/2/2 114/2/2
f 114/2/2 112/2/2 115/2/2
f 115/2/2 112/2/2 116/2/2
f 113/2/2 114/2/2 119/2/2
f 119/2/2 114/2/2 120/2/2
f 115/2/2 116/2/2 122/2/2
f 116/2/2 117/2/2 122/2/2
f 122/2/2 117/2/2 123/2/2
f 123/2/2 124/2/2 125/2/2
f 122/2/2 123/2/2 125/2/2
f 121/2/2 122/2/2 125/2/2
f 125/2/2 124/2/2 126/2/2
f 126/2/2 124/2/2 127/2/2
f 127/2/2 124/2/2 128/2/2
f 126/2/2 127/2/2 129/2/2
f 129/2/2 127/2/2 130/2/2
f 118/2/2 119/2/2 131/2/2
f 118/2/2 131/2/2 134/2/2
f 132/2/2 133/2/2 134/2/2
f 131/2/2 132/2/2 134/2/2
f 134/2/2 133/2/2 135/2/2
f 135/2/2 133/2/2 136/2/2
f 128/2/2 124/2/2 138/2/2
f 138/2/2 124/2/2 139/2/2
f 135/2/2 136/2/2 140/2/2
f 140/2/2 136/2/2 141/2/2
f 141/2/2 136/2/2 142/2/2
f 137/2/2 138/2/2 143/2/2
f 143/2/2 138/2/2 144/2/2
f 141/2/2 142/2/2 145/2/2
f 142/2/2 143/2/2 145/2/2
f 145/2/2 143/2/2 146/2/2
f 147/1/2 148/1/2 150/1/2
f 150/1/2 148/1/2 151/1/2
f 151/1/2 148/1/2 152/1/2
f 149/1/2 150/1/2 154/1/2
f 150/1/2 151/1/2 154/1/2
f 154/1/2 151/1/2 155/1/2
f 155/1/2 151/1/2 156/1/2
f 153/1/2 154/1/2 159/1/2
f 154/1/2 155/1/2 159/1/2
f 159/1/2 155/1/2 160/1/2
f 157/1/2 158/1/2 162/1/2
f 153/1/2 159/1/2 163/1/2
f 163/1/2 159/1/2 164/1/2
f 161/1/2 162/1/2 166/1/2
f 165/1/2 166/1/2 167/1/2
f 166/1/2 162/1/2 168/1/2
f 167/1/2 166/1/2 168/1/2
f 162/1/2 158/1/2 169/1/2
f 168/1/2 162/1/2 169/1/2
f 169/1/2 158/1/2 170/1/2
f 168/1/2 169/1/2 171/1/2
f 171/1/2 169/1/2 172/1/2
f 173/2/2 174/2/2 176/2/2
f 176/2/2 174/2/2 177/2/2
f 177/2/2 174/2/2 178/2/2
f 175/2/2 176/2/2 181/2/2
f 181/2/2 176/2/2 182/2/2
f 177/2/2 178/2/2 184/2/2
f 178/2/2 179/2/2 184/2/2
f 184/2/2 179/2/2 185/2/2
f 185/2/2 186/2/2 188/2/2
f 184/2/2 185/2/2 188/2/2
f 183/2/2 184/2/2 188/2/2
f 188/2/2 186/2/2 189/2/2
f 189/2/2 186/2/2 190/2/2
f 187/2/2 188/2/2 192/2/2
f 188/2/2 189/2/2 192/2/2
f 192/2/2 189/2/2 193/2/2
f 193/2/2 189/2/2 194/2/2
f 191/2/2 192/2/2 196/2/2
f 192/2/2 193/2/2 196/2/2
f 196/2/2 193/2/2 197/2/2
f 197/2/2 193/2/2 198/2/2
f 195/2/2 196/2/2 200/2/2
f 196/2/2 197/2/2 200/2/2
f 200/2/2 197/2/2 201/2/2
f 201/2/2 197/2/2 202/2/2
f 180/2/2 181/2/2 203/2/2
f 199/2/2 200/2/2 204/2/2
f 200/2/2 201/2/2 204/2/2
f 204/2/2 201/2/2 205/2/2
f 205/2/2 201/2/2 206/2/2
f 180/2/2 203/2/2 207/2/2
f 203/2/2 204/2/2 207/2/2
f 204/2/2 205/2/2 207/2/2
f 207/2/2 205/2/2 208/2/2
f 208/2/2 205/2/2 209/2/2
f 209/2/2 205/2/2 210/2/2
f 190/2/2 186/2/2 212/2/2
f 212/2/2 186/2/2 213/2/2
f 208/2/2 209/2/2 214/2/2
f 214/2/2 209/2/2 215/2/2
f 215/2/2 209/2/2 216/2/2
f 211/2/2 212/2/2 217/2/2
f 217/2/2 212/2/2 218/2/2
f 215/2/2 216/2/2 219/2/2
f 216/2/2 217/2/2 219/2/2
f 219/2/2 217/2/2 220/2/2
f 223/2/3 222/2/3 221/2/3
f 224/2/3 222/2/3 223/2/3
f 227/2/3 226/2/3 225/2/3
f 228/2/3 226/2/3 227/2/3
f 233/2/3 230/2/3 229/2/3
f 234/2/3 230/2/3 233/2/3
f 235/2/3 232/2/3 231/2/3
f 236/2/3 232/2/3 235/2/3
f 241/2/3 238/2/3 237/2/3
f 242/2/3 238/2/3 241/2/3
f 243/2/3 240/2/3 239/2/3
f 244/2/3 240/2/3 243/2/3
f 251/2/3 246/2/3 245/2/3
f 252/2/3 246/2/3 251/2/3
f 254/2/3 248/2/3 247/2/3
f 255/2/3 248/2/3 254/2/3
f 256/2/3 250/2/3 249/2/3
f 257/2/3 250/2/3 256/2/3
f 260/1/3 255/1/3 254/1/3
f 260/1/3 254/1/3 253/1/3
f 261/1/3 255/1/3 260/1/3
f 262/1/3 255/1/3 261/1/3
f 265/2/3 259/2/3 258/2/3
f 266/2/3 259/2/3 265/2/3
f 267/2/3 262/2/3 261/2/3
f 268/2/3 262/2/3 267/2/3
f 269/2/3 264/2/3 263/2/3
f 270/2/3 264/2/3 269/2/3
f 275/2/3 272/2/3 271/2/3
f 276/2/3 272/2/3 275/2/3
f 279/1/3 274/1/3 273/1/3
f 280/1/3 274/1/3 279/1/3
f 283/1/3 278/1/3 277/1/3
f 284/1/3 278/1/3 283/1/3
f 285/2/3 282/2/3 281/2/3
f 286/2/3 282/2/3 285/2/3
f 291/2/3 288/2/3 287/2/3
f 292/2/3 288/2/3 291/2/3
f 293/1/3 290/1/3 289/1/3
f 294/1/3 290/1/3 293/1/3
f 297/2/3 296/2/3 295/2/3
f 298/2/3 296/2/3 297/2/3
f 301/2/3 300/2/3 299/2/3
f 302/2/3 300/2/3 301/2/3
f 305/2/3 304/2/3 303/2/3
f 306/2/3 304/2/3 305/2/3
f 309/2/3 308/2/3 307/2/3
f 310/2/3 308/2/3 309/2/3
f 315/1/3 312/1/3 311/1/3
f 316/1/3 312/1/3 315/1/3
f 317/2/3 314/2/3 313/2/3
f 318/2/3 314/2/3 317/2/3
f 321/2/3 320/2/3 319/2/3
f 322/2/3 320/2/3 321/2/3
f 325/2/3 324/2/3 323/2/3
f 326/2/3 324/2/3 325/2/3
f 329/2/3 328/2/3 327/2/3
f 330/2/3 328/2/3 329/2/3
f 333/2/3 332/2/3 331/2/3
f 334/2/3 332/2/3 333/2/3
f 337/2/3 336/2/3 335/2/3
f 338/2/3 336/2/3 337/2/3
f 341/2/3 340/2/3 339/2/3
f 342/2/3 340/2/3 341/2/3
f 343/2/4 344/2/4 345/2/4
f 345/2/4 344/2/4 346/2/4
f 347/2/4 348/2/4 349/2/4
f 349/2/4 348/2/4 350/2/4
f 351/2/4 352/2/4 353/2/4
f 353/2/4 352/2/4 354/2/4
f 355/2/4 356/2/4 357/2/4
f 357/2/4 356/2/4 358/2/4
f 359/2/4 360/2/4 361/2/4
f 361/2/4 360/2/4 362/2/4
f 363/2/4 364/2/4 365/2/4
f 365/2/4 364/2/4 366/2/4
f 367/2/4 368/2/4 369/2/4
f 369/2/4 368/2/4 370/2/4
f 369/1/4 370/1/4 371/1/4
f 371/1/4 370/1/4 372/1/4
f 371/2/4 372/2/4 373/2/4
f 373/2/4 372/2/4 374/2/4
f 375/2/4 376/2/4 377/2/4
f 377/2/4 376/2/4 378/2/4
f 379/2/4 380/2/4 381/2/4
f 381/2/4 380/2/4 382/2/4
f 383/2/4 384/2/4 387/2/4
f 387/2/4 384/2/4 388/2/4
f 385/1/4 386/1/4 389/1/4
f 389/1/4 386/1/4 390/1/4
f 391/2/4 392/2/4 393/2/4
f 393/2/4 392/2/4 394/2/4
f 395/2/4 396/2/4 398/2/4
f 398/2/4 396/2/4 399/2/4
f 397/1/4 398/1/4 402/1/4
f 402/1/4 398/1/4 403/1/4
f 400/1/4 401/1/4 405/1/4
f 405/1/4 401/1/4 406/1/4
f 403/2/4 404/2/4 407/2/4
f 407/2/4 404/2/4 408/2/4
f 409/2/4 410/2/4 415/2/4
f 415/2/4 410/2/4 416/2/4
f 411/2/4 412/2/4 417/2/4
f 417/2/4 412/2/4 418/2/4
f 413/2/4 414/2/4 420/2/4
f 420/2/4 414/2/4 421/2/4
f 418/1/4 419/1/4 425/1/4
f 425/1/4 419/1/4 426/1/4
f 422/2/4 423/2/4 429/2/4
f 429/2/4 423/2/4 430/2/4
f 424/2/4 425/2/4 431/2/4
f 431/2/4 425/2/4 432/2/4
f 427/2/4 428/2/4 433/2/4
f 433/2/4 428/2/4 434/2/4
f 435/2/4 436/2/4 439/2/4
f 439/2/4 436/2/4 440/2/4
f 437/2/4 438/2/4 441/2/4
f 441/2/4 438/2/4 442/2/4
f 443/2/4 444/2/4 447/2/4
f 447/2/4 444/2/4 448/2/4
f 445/2/4 446/2/4 449/2/4
f 449/2/4 446/2/4 450/2/4
f 451/2/4 452/2/4 453/2/4
f 453/2/4 452/2/4 454/2/4
f 455/2/4 456/2/4 457/2/4
f 457/2/4 456/2/4 458/2/4
f 463/2/5 460/2/5 459/2/5
f 464/2/5 460/2/5 463/2/5
f 465/2/5 462/2/5 461/2/5
f 466/2/5 462/2/5 465/2/5
f 471/2/5 468/2/5 467/2/5
f 472/2/5 468/2/5 471/2/5
f 473/2/5 470/2/5 469/2/5
f 474/2/5 470/2/5 473/2/5
f 479/2/5 476/2/5 475/2/5
f 480/2/5 476/2/5 479/2/5
f 481/2/5 478/2/5 477/2/5
f 482/2/5 478/2/5 481/2/5
f 487/2/5 484/2/5 483/2/5
f 488/2/5 484/2/5 487/2/5
f 489/2/5 486/2/5 485/2/5
f 490/2/5 486/2/5 489/2/5
f 494/1/5 492/1/5 491/1/5
f 495/1/5 492/1/5 494/1/5
f 497/2/5 494/2/5 493/2/5
f 498/2/5 494/2/5 497/2/5
f 499/2/5 496/2/5 495/2/5
f 500/2/5 496/2/5 499/2/5
f 505/2/5 502/2/5 501/2/5
f 506/2/5 502/2/5 505/2/5
f 507/2/5 504/2/5 503/2/5
f 508/2/5 504/2/5 507/2/5
f 511/1/5 510/1/5 509/1/5
f 512/1/5 510/1/5 511/1/5
f 517/2/5 514/2/5 513/2/5
f 518/2/5 514/2/5 517/2/5
f 519/2/5 516/2/5 515/2/5
f 520/2/5 516/2/5 519/2/5
f 521/1/5 519/1/5 518/1/5
f 522/1/5 519/1/5 521/1/5
f 525/1/5 524/1/5 523/1/5
f 526/1/5 524/1/5 525/1/5
f 531/2/5 528/2/5 527/2/5
f 532/2/5 528/2/5 531/2/5
f 533/2/5 530/2/5 529/2/5
f 534/2/5 530/2/5 533/2/5
f 537/1/5 536/1/5 535/1/5
f 538/1/5 536/1/5 537/1/5
f 543/2/5 540/2/5 539/2/5
f 544/2/5 540/2/5 543/2/5
f 545/2/5 542/2/5 541/2/5
f 546/2/5 542/2/5 545/2/5
f 551/2/5 548/2/5 547/2/5
f 552/2/5 548/2/5 551/2/5
f 553/2/5 550/2/5 549/2/5
f 554/2/5 550/2/5 553/2/5
f 559/2/5 556/2/5 555/2/5
f 560/2/5 556/2/5 559/2/5
f 561/2/5 558/2/5 557/2/5
f 562/2/5 558/2/5 561/2/5
f 567/2/5 564/2/5 563/2/5
f 568/2/5 564/2/5 567/2/5
f 569/2/5 566/2/5 565/2/5
f 570/2/5 566/2/5 569/2/5
f 575/2/5 572/2/5 571/2/5
f 576/2/5 572/2/5 575/2/5
f 577/2/5 574/2/5 573/2/5
f 578/2/5 574/2/5 577/2/5
f 579/2/6 580/2/6 583/2/6
f 583/2/6 580/2/6 584/2/6
f 581/2/6 582/2/6 585/2/6
f 585/2/6 582/2/6 586/2/6
f 587/2/6 588/2/6 591/2/6
f 591/2/6 588/2/6 592/2/6
f 589/2/6 590/2/6 593/2/6
f 593/2/6 590/2/6 594/2/6
f 595/2/6 596/2/6 599/2/6
f 599/2/6 596/2/6 600/2/6
f 597/2/6 598/2/6 601/2/6
f 601/2/6 598/2/6 602/2/6
f 603/2/6 604/2/6 607/2/6
f 607/2/6 604/2/6 608/2/6
f 605/2/6 606/2/6 609/2/6
f 609/2/6 606/2/6 610/2/6
f 611/2/6 612/2/6 615/2/6
f 615/2/6 612/2/6 616/2/6
f 613/2/6 614/2/6 617/2/6
f 617/2/6 614/2/6 618/2/6
f 619/2/6 620/2/6 623/2/6
f 623/2/6 620/2/6 624/2/6
f 621/2/6 622/2/6 625/2/6
f 625/2/6 622/2/6 626/2/6
f 627/1/6 628/1/6 629/1/6
f 629/1/6 628/1/6 630/1/6
f 631/2/6 632/2/6 635/2/6
f 632/1/6 633/1/6 636/1/6
f 635/2/6 632/2/6 636/2/6
f 633/2/6 634/2/6 637/2/6
f 636/1/6 633/1/6 637/1/6
f 637/2/6 634/2/6 638/2/6
f 636/1/6 637/1/6 639/1/6
f 639/1/6 637/1/6 640/1/6
f 641/1/6 642/1/6 643/1/6
f 643/1/6 642/1/6 644/1/6
f 645/2/6 646/2/6 649/2/6
f 649/2/6 646/2/6 650/2/6
f 647/2/6 648/2/6 651/2/6
f 651/2/6 648/2/6 652/2/6
f 653/2/6 654/2/6 657/2/6
f 654/1/6 655/1/6 658/1/6
f 657/2/6 654/2/6 658/2/6
f 655/2/6 656/2/6 659/2/6
f 658/1/6 655/1/6 659/1/6
f 659/2/6 656/2/6 660/2/6
f 661/1/6 662/1/6 663/1/6
f 663/1/6 662/1/6 664/1/6
f 665/2/6 666/2/6 669/2/6
f 669/2/6 666/2/6 670/2/6
f 667/2/6 668/2/6 671/2/6
f 671/2/6 668/2/6 672/2/6
f 673/2/6 674/2/6 677/2/6
f 677/2/6 674/2/6 678/2/6
f 675/2/6 676/2/6 679/2/6
f 679/2/6 676/2/6 680/2/6
f 681/2/6 682/2/6 685/2/6
f 685/2/6 682/2/6 686/2/6
f 683/2/6 684/2/6 687/2/6
f 687/2/6 684/2/6 688/2/6
f 689/2/6 690/2/6 693/2/6
f 693/2/6 690/2/6 694/2/6
f 691/2/6 692/2/6 695/2/6
f 695/2/6 692/2/6 696/2/6
