# MagicaVoxel @ Ephtracy

# material
mtllib wall.mtl
usemtl palette

# normals
vn -1 0 0
vn 1 0 0
vn 0 0 1
vn 0 0 -1
vn 0 -1 0
vn 0 1 0

# texcoords
vt 0.306641 0.5
vt 0.779297 0.5
vt 0.845703 0.5
vt 0.861328 0.5
vt 0.888672 0.5
vt 0.896484 0.5

# verts
v -2 0 20
v -2 0 2
v -2 0 -2
v -2 0 -20
v -2 18 2
v -2 18 -2
v -2 19 20
v -2 19 2
v -2 19 -2
v -2 19 -20
v -2 20 20
v -2 20 2
v -2 20 -2
v -2 20 -20
v -2 38 2
v -2 38 -2
v -2 39 20
v -2 39 2
v -2 39 -2
v -2 39 -20
v -2 40 20
v -2 40 2
v -2 40 -2
v -2 40 -20
v 2 0 20
v 2 0 2
v 2 0 -2
v 2 0 -20
v 2 18 2
v 2 18 -2
v 2 19 20
v 2 19 2
v 2 19 -2
v 2 19 -20
v 2 20 20
v 2 20 2
v 2 20 -2
v 2 20 -20
v 2 38 2
v 2 38 -2
v 2 39 20
v 2 39 2
v 2 39 -2
v 2 39 -20
v 2 40 20
v 2 40 2
v 2 40 -2
v 2 40 -20
v -2 0 20
v -2 19 20
v -2 20 20
v -2 39 20
v -2 40 20
v 1 19 20
v 1 20 20
v 1 39 20
v 1 40 20
v 2 0 20
v 2 19 20
v 2 20 20
v 2 39 20
v 2 40 20
v -2 19 -2
v -2 20 -2
v -2 39 -2
v -2 40 -2
v 1 19 -2
v 1 20 -2
v 1 39 -2
v 1 40 -2
v 2 19 -2
v 2 20 -2
v 2 39 -2
v 2 40 -2
v -2 19 2
v -2 20 2
v -2 39 2
v -2 40 2
v 1 19 2
v 1 20 2
v 1 39 2
v 1 40 2
v 2 19 2
v 2 20 2
v 2 39 2
v 2 40 2
v -2 0 -20
v -2 19 -20
v -2 20 -20
v -2 39 -20
v -2 40 -20
v 1 19 -20
v 1 20 -20
v 1 39 -20
v 1 40 -20
v 2 0 -20
v 2 19 -20
v 2 20 -20
v 2 39 -20
v 2 40 -20
v -2 0 20
v 2 0 20
v -2 0 2
v 2 0 2
v -2 0 -2
v 2 0 -2
v -2 0 -20
v 2 0 -20
v -2 20 2
v 1 20 2
v 2 20 2
v -2 20 -2
v 1 20 -2
v 2 20 -2
v -2 19 2
v 1 19 2
v 2 19 2
v -2 19 -2
v 1 19 -2
v 2 19 -2
v -2 39 2
v 1 39 2
v 2 39 2
v -2 39 -2
v 1 39 -2
v 2 39 -2
v -2 40 20
v 1 40 20
v 2 40 20
v -2 40 2
v 1 40 2
v 2 40 2
v -2 40 -2
v 1 40 -2
v 2 40 -2
v -2 40 -20
v 1 40 -20
v 2 40 -20

# faces
f 5/6/1 2/6/1 1/6/1
f 5/2/1 3/2/1 2/2/1
f 6/5/1 4/5/1 3/5/1
f 6/2/1 3/2/1 5/2/1
f 7/6/1 5/6/1 1/6/1
f 8/4/1 6/4/1 5/4/1
f 8/6/1 5/6/1 7/6/1
f 9/5/1 4/5/1 6/5/1
f 9/4/1 6/4/1 8/4/1
f 10/5/1 4/5/1 9/5/1
f 11/4/1 8/4/1 7/4/1
f 12/4/1 8/4/1 11/4/1
f 13/4/1 10/4/1 9/4/1
f 14/4/1 10/4/1 13/4/1
f 15/6/1 12/6/1 11/6/1
f 15/1/1 13/1/1 12/1/1
f 16/5/1 14/5/1 13/5/1
f 16/1/1 13/1/1 15/1/1
f 17/6/1 15/6/1 11/6/1
f 18/4/1 16/4/1 15/4/1
f 18/6/1 15/6/1 17/6/1
f 19/5/1 14/5/1 16/5/1
f 19/4/1 16/4/1 18/4/1
f 20/5/1 14/5/1 19/5/1
f 21/4/1 18/4/1 17/4/1
f 22/4/1 18/4/1 21/4/1
f 23/4/1 20/4/1 19/4/1
f 24/4/1 20/4/1 23/4/1
f 25/6/2 26/6/2 29/6/2
f 26/2/2 27/2/2 29/2/2
f 27/5/2 28/5/2 30/5/2
f 29/2/2 27/2/2 30/2/2
f 25/6/2 29/6/2 31/6/2
f 29/3/2 30/3/2 32/3/2
f 31/6/2 29/6/2 32/6/2
f 30/5/2 28/5/2 33/5/2
f 32/3/2 30/3/2 33/3/2
f 33/5/2 28/5/2 34/5/2
f 31/3/2 32/3/2 35/3/2
f 35/3/2 32/3/2 36/3/2
f 33/3/2 34/3/2 37/3/2
f 37/3/2 34/3/2 38/3/2
f 35/6/2 36/6/2 39/6/2
f 36/1/2 37/1/2 39/1/2
f 37/5/2 38/5/2 40/5/2
f 39/1/2 37/1/2 40/1/2
f 35/6/2 39/6/2 41/6/2
f 39/3/2 40/3/2 42/3/2
f 41/6/2 39/6/2 42/6/2
f 40/5/2 38/5/2 43/5/2
f 42/3/2 40/3/2 43/3/2
f 43/5/2 38/5/2 44/5/2
f 41/3/2 42/3/2 45/3/2
f 45/3/2 42/3/2 46/3/2
f 43/3/2 44/3/2 47/3/2
f 47/3/2 44/3/2 48/3/2
f 54/6/3 50/6/3 49/6/3
f 54/4/3 51/4/3 50/4/3
f 55/6/3 52/6/3 51/6/3
f 55/4/3 51/4/3 54/4/3
f 56/4/3 53/4/3 52/4/3
f 56/6/3 52/6/3 55/6/3
f 57/4/3 53/4/3 56/4/3
f 58/6/3 54/6/3 49/6/3
f 59/3/3 55/3/3 54/3/3
f 59/6/3 54/6/3 58/6/3
f 60/6/3 56/6/3 55/6/3
f 60/3/3 55/3/3 59/3/3
f 61/3/3 57/3/3 56/3/3
f 61/6/3 56/6/3 60/6/3
f 62/3/3 57/3/3 61/3/3
f 67/4/3 64/4/3 63/4/3
f 68/4/3 64/4/3 67/4/3
f 69/4/3 66/4/3 65/4/3
f 70/4/3 66/4/3 69/4/3
f 71/3/3 68/3/3 67/3/3
f 72/3/3 68/3/3 71/3/3
f 73/3/3 70/3/3 69/3/3
f 74/3/3 70/3/3 73/3/3
f 75/4/4 76/4/4 79/4/4
f 79/4/4 76/4/4 80/4/4
f 77/4/4 78/4/4 81/4/4
f 81/4/4 78/4/4 82/4/4
f 79/3/4 80/3/4 83/3/4
f 83/3/4 80/3/4 84/3/4
f 81/3/4 82/3/4 85/3/4
f 85/3/4 82/3/4 86/3/4
f 87/5/4 88/5/4 92/5/4
f 88/4/4 89/4/4 92/4/4
f 89/5/4 90/5/4 93/5/4
f 92/4/4 89/4/4 93/4/4
f 90/4/4 91/4/4 94/4/4
f 93/5/4 90/5/4 94/5/4
f 94/4/4 91/4/4 95/4/4
f 87/5/4 92/5/4 96/5/4
f 92/3/4 93/3/4 97/3/4
f 96/5/4 92/5/4 97/5/4
f 93/5/4 94/5/4 98/5/4
f 97/3/4 93/3/4 98/3/4
f 94/3/4 95/3/4 99/3/4
f 98/5/4 94/5/4 99/5/4
f 99/3/4 95/3/4 100/3/4
f 103/6/5 102/6/5 101/6/5
f 104/6/5 102/6/5 103/6/5
f 105/2/5 104/2/5 103/2/5
f 106/2/5 104/2/5 105/2/5
f 107/5/5 106/5/5 105/5/5
f 108/5/5 106/5/5 107/5/5
f 112/1/5 110/1/5 109/1/5
f 112/1/5 111/1/5 110/1/5
f 113/1/5 111/1/5 112/1/5
f 114/1/5 111/1/5 113/1/5
f 115/4/6 116/4/6 118/4/6
f 116/3/6 117/3/6 119/3/6
f 118/4/6 116/4/6 119/4/6
f 119/3/6 117/3/6 120/3/6
f 121/4/6 122/4/6 124/4/6
f 122/3/6 123/3/6 125/3/6
f 124/4/6 122/4/6 125/4/6
f 125/3/6 123/3/6 126/3/6
f 127/4/6 128/4/6 130/4/6
f 128/3/6 129/3/6 131/3/6
f 130/4/6 128/4/6 131/4/6
f 131/3/6 129/3/6 132/3/6
f 133/4/6 134/4/6 136/4/6
f 134/3/6 135/3/6 137/3/6
f 136/4/6 134/4/6 137/4/6
f 137/3/6 135/3/6 138/3/6
